<svg width="44" height="44" viewBox="0 0 44 44" fill="none" xmlns="http://www.w3.org/2000/svg">
<circle cx="22" cy="22" r="20" stroke="#F2EA7E" stroke-width="3" stroke-linecap="round" stroke-dasharray="4 4"/>
<path d="M15.2521 17.8C15.2521 16.8933 15.5254 16.1733 16.0721 15.64C16.6188 15.0933 17.3188 14.82 18.1721 14.82C19.0254 14.82 19.7254 15.0933 20.2721 15.64C20.8188 16.1733 21.0921 16.8933 21.0921 17.8C21.0921 18.72 20.8188 19.4533 20.2721 20C19.7254 20.5333 19.0254 20.8 18.1721 20.8C17.3188 20.8 16.6188 20.5333 16.0721 20C15.5254 19.4533 15.2521 18.72 15.2521 17.8ZM26.9321 15.04L18.8321 29H17.0321L25.1321 15.04H26.9321ZM18.1721 15.94C17.7188 15.94 17.3588 16.1 17.0921 16.42C16.8388 16.7267 16.7121 17.1867 16.7121 17.8C16.7121 18.4133 16.8388 18.88 17.0921 19.2C17.3588 19.52 17.7188 19.68 18.1721 19.68C18.6254 19.68 18.9854 19.52 19.2521 19.2C19.5188 18.8667 19.6521 18.4 19.6521 17.8C19.6521 17.1867 19.5188 16.7267 19.2521 16.42C18.9854 16.1 18.6254 15.94 18.1721 15.94ZM22.9121 26.24C22.9121 25.32 23.1854 24.5933 23.7321 24.06C24.2788 23.5133 24.9788 23.24 25.8321 23.24C26.6854 23.24 27.3788 23.5133 27.9121 24.06C28.4588 24.5933 28.7321 25.32 28.7321 26.24C28.7321 27.1467 28.4588 27.8733 27.9121 28.42C27.3788 28.9667 26.6854 29.24 25.8321 29.24C24.9788 29.24 24.2788 28.9733 23.7321 28.44C23.1854 27.8933 22.9121 27.16 22.9121 26.24ZM25.8121 24.38C25.3588 24.38 24.9988 24.54 24.7321 24.86C24.4654 25.1667 24.3321 25.6267 24.3321 26.24C24.3321 26.84 24.4654 27.3 24.7321 27.62C24.9988 27.9267 25.3588 28.08 25.8121 28.08C26.2654 28.08 26.6254 27.9267 26.8921 27.62C27.1588 27.3 27.2921 26.84 27.2921 26.24C27.2921 25.6267 27.1588 25.1667 26.8921 24.86C26.6254 24.54 26.2654 24.38 25.8121 24.38Z" fill="#F2EA7E"/>
</svg>
