<svg width="40" height="40" viewBox="0 0 40 40" fill="none" xmlns="http://www.w3.org/2000/svg">
<circle cx="20" cy="20" r="19" stroke="#F2EA7E" stroke-width="2" stroke-linecap="round" stroke-dasharray="4 4"/>
<path d="M19.4044 11.7562C19.584 11.2034 20.366 11.2034 20.5456 11.7562L22.0798 16.478C22.1601 16.7252 22.3905 16.8926 22.6505 16.8926H27.6152C28.1964 16.8926 28.4381 17.6363 27.9678 17.978L23.9513 20.8962C23.741 21.0489 23.653 21.3198 23.7333 21.567L25.2675 26.2887C25.4471 26.8415 24.8144 27.3012 24.3442 26.9595L20.3277 24.0413C20.1174 23.8886 19.8326 23.8886 19.6223 24.0413L15.6058 26.9595C15.1356 27.3012 14.5029 26.8415 14.6825 26.2887L16.2167 21.567C16.297 21.3198 16.209 21.0489 15.9987 20.8962L11.9821 17.978C11.5119 17.6363 11.7536 16.8926 12.3348 16.8926H17.2995C17.5595 16.8926 17.7899 16.7252 17.8702 16.478L19.4044 11.7562Z" fill="#F2EA7E"/>
</svg>
