<svg width="40" height="40" viewBox="0 0 40 40" fill="none" xmlns="http://www.w3.org/2000/svg">
<circle cx="20" cy="20" r="19" stroke="#F2EA7E" stroke-width="2" stroke-linecap="round" stroke-dasharray="4 4"/>
<path d="M25.9237 18.2369C25.9537 18.4221 25.856 18.7312 25.4746 19.0143C22.0498 21.5559 21.3352 24.6727 20.9509 26.9751C20.918 27.1723 20.8885 27.3571 20.8604 27.5326C20.8051 27.8789 20.7555 28.189 20.6972 28.4867C20.6107 28.9286 20.5211 29.2495 20.4132 29.4847C20.3109 29.7076 20.2118 29.8104 20.1218 29.8685C20.0306 29.9273 19.8559 30 19.5 30C19.1582 30 18.992 29.9263 18.9034 29.8659C18.811 29.8029 18.7055 29.6878 18.5978 29.4426C18.4859 29.1877 18.3946 28.8455 18.3077 28.3859C18.2491 28.0759 18.1993 27.7535 18.1441 27.3962C18.1164 27.2165 18.0872 27.028 18.055 26.8278C17.678 24.4905 16.9833 21.3389 13.5817 18.9896L13.0134 19.8124L13.5817 18.9896C13.1581 18.697 13.0532 18.3697 13.086 18.1793C13.5866 15.2716 16.2413 13 19.5 13C22.7804 13 25.4481 15.3016 25.9237 18.2369Z" stroke="#F2EA7E" stroke-width="2"/>
<path d="M13.1945 12.4919L11 10.1608" stroke="#F2EA7E" stroke-width="1.5" stroke-linecap="round"/>
<path d="M25.1621 12.196L27.4918 10" stroke="#F2EA7E" stroke-width="1.5" stroke-linecap="round"/>
<path d="M19.5597 10.2016L19.5649 7" stroke="#F2EA7E" stroke-width="1.5" stroke-linecap="round"/>
<path d="M10 17L7 16" stroke="#F2EA7E" stroke-width="1.5" stroke-linecap="round"/>
<path d="M31.9787 15.7874L29 16.8492" stroke="#F2EA7E" stroke-width="1.5" stroke-linecap="round"/>
</svg>
