<svg width="44" height="44" viewBox="0 0 44 44" fill="none" xmlns="http://www.w3.org/2000/svg">
<circle cx="22" cy="22" r="20" stroke="#F2EA7E" stroke-width="3" stroke-linecap="round" stroke-dasharray="4 4"/>
<path d="M21.4044 13.7562C21.584 13.2034 22.366 13.2034 22.5456 13.7562L24.0798 18.478C24.1601 18.7252 24.3905 18.8926 24.6505 18.8926H29.6152C30.1964 18.8926 30.4381 19.6363 29.9678 19.978L25.9513 22.8962C25.741 23.0489 25.653 23.3198 25.7333 23.567L27.2675 28.2887C27.4471 28.8415 26.8144 29.3012 26.3442 28.9595L22.3277 26.0413C22.1174 25.8886 21.8326 25.8886 21.6223 26.0413L17.6058 28.9595C17.1356 29.3012 16.5029 28.8415 16.6825 28.2887L18.2167 23.567C18.297 23.3198 18.209 23.0489 17.9987 22.8962L13.9821 19.978C13.5119 19.6363 13.7536 18.8926 14.3348 18.8926H19.2995C19.5595 18.8926 19.7899 18.7252 19.8702 18.478L21.4044 13.7562Z" fill="#F2EA7E"/>
</svg>
