<svg width="44" height="44" viewBox="0 0 44 44" fill="none" xmlns="http://www.w3.org/2000/svg">
<circle cx="22" cy="22" r="20" stroke="#F2EA7E" stroke-width="3" stroke-linecap="round" stroke-dasharray="4 4"/>
<path d="M28.4746 22.0143C25.0498 24.5559 24.3352 27.6727 23.9509 29.9751C23.918 30.1723 23.8885 30.3571 23.8604 30.5326C23.8051 30.8789 23.7555 31.189 23.6972 31.4867C23.6107 31.9286 23.5211 32.2495 23.4132 32.4847C23.3109 32.7076 23.2118 32.8104 23.1218 32.8685C23.0306 32.9273 22.8559 33 22.5 33C22.1582 33 21.992 32.9263 21.9034 32.8659C21.811 32.8029 21.7055 32.6878 21.5978 32.4426C21.4859 32.1877 21.3946 31.8455 21.3077 31.3859C21.2491 31.0759 21.1993 30.7535 21.1441 30.3962C21.1164 30.2165 21.0872 30.028 21.055 29.8278C20.678 27.4905 19.9833 24.3389 16.5817 21.9896C16.1581 21.697 16.0532 21.3697 16.086 21.1793C16.5866 18.2716 19.2413 16 22.5 16C25.7804 16 28.4481 18.3016 28.9237 21.2369C28.9537 21.4221 28.856 21.7312 28.4746 22.0143Z" stroke="#F2EA7E" stroke-width="2"/>
<path d="M16.1945 15.4919L14 13.1608" stroke="#F2EA7E" stroke-width="1.5" stroke-linecap="round"/>
<path d="M28.1621 15.196L30.4918 13" stroke="#F2EA7E" stroke-width="1.5" stroke-linecap="round"/>
<path d="M22.5597 13.2016L22.5649 10" stroke="#F2EA7E" stroke-width="1.5" stroke-linecap="round"/>
<path d="M13 20L10 19" stroke="#F2EA7E" stroke-width="1.5" stroke-linecap="round"/>
<path d="M34.9787 18.7874L32 19.8492" stroke="#F2EA7E" stroke-width="1.5" stroke-linecap="round"/>
</svg>
