<svg width="49" height="49" viewBox="0 0 49 49" fill="none" xmlns="http://www.w3.org/2000/svg">
<circle cx="24.5" cy="24.5" r="22.5" stroke="#FDE000" stroke-width="3" stroke-linecap="round" stroke-dasharray="4 4"/>
<path d="M24.3054 14.938C26.0874 14.938 27.5274 15.442 28.6254 16.45C29.7234 17.458 30.2724 18.808 30.2724 20.5C30.2724 22.39 29.6874 23.794 28.5174 24.712C27.3474 25.612 25.7634 26.062 23.7654 26.062L23.6844 28.627H21.5514L21.4434 24.361H22.2264C24.0084 24.361 25.4034 24.091 26.4114 23.551C27.4194 23.011 27.9234 21.994 27.9234 20.5C27.9234 19.42 27.5994 18.565 26.9514 17.935C26.3034 17.305 25.4304 16.99 24.3324 16.99C23.2164 16.99 22.3344 17.296 21.6864 17.908C21.0564 18.502 20.7414 19.321 20.7414 20.365H18.4194C18.4194 19.285 18.6624 18.34 19.1484 17.53C19.6344 16.702 20.3184 16.063 21.2004 15.613C22.1004 15.163 23.1354 14.938 24.3054 14.938ZM22.6044 34.162C22.1364 34.162 21.7404 34 21.4164 33.676C21.0924 33.352 20.9304 32.956 20.9304 32.488C20.9304 32.02 21.0924 31.624 21.4164 31.3C21.7404 30.976 22.1364 30.814 22.6044 30.814C23.0544 30.814 23.4324 30.976 23.7384 31.3C24.0624 31.624 24.2244 32.02 24.2244 32.488C24.2244 32.956 24.0624 33.352 23.7384 33.676C23.4324 34 23.0544 34.162 22.6044 34.162Z" fill="#FDE000"/>
</svg>
